<svg width="27" height="27" viewBox="0 0 27 27" fill="none" xmlns="http://www.w3.org/2000/svg">
<path d="M26.0939 5.53389L24.2013 5.5338V3.57462C24.2013 3.12608 23.8731 2.74499 23.4295 2.67863C23.352 2.66699 21.5082 2.39917 19.2879 2.80317C16.8128 3.25353 14.8388 4.36417 13.5 6.04316C12.161 4.36417 10.1871 3.25353 7.71197 2.80317C5.49162 2.39926 3.64781 2.66699 3.57044 2.67863C3.12681 2.74508 2.79863 3.12617 2.79863 3.57462V5.5338H0.905997C0.405726 5.5338 0 5.93953 0 6.43989V23.513C0 23.8064 0.141999 24.0816 0.381181 24.2516C0.620362 24.4216 0.926997 24.4652 1.204 24.3686C1.272 24.3451 8.06134 22.028 13.124 24.3373C13.3629 24.4463 13.6371 24.4463 13.876 24.3373C18.9245 22.0346 25.7284 24.3453 25.796 24.3686C25.8931 24.4025 25.9936 24.4191 26.0938 24.4191C26.2795 24.4191 26.4634 24.362 26.6188 24.2516C26.858 24.0816 27 23.8065 27 23.5131V6.43998C26.9999 5.93962 26.5943 5.53389 26.0939 5.53389ZM1.81208 22.3007V7.34588H2.79863V19.4118C2.79863 19.6751 2.91381 19.9251 3.11299 20.0972C3.31217 20.2693 3.57708 20.3465 3.83744 20.308C3.88744 20.3007 7.82343 19.7604 10.6991 21.7334C7.15679 21.1277 3.61153 21.8283 1.81208 22.3007ZM12.594 20.9163C11.3274 19.7719 9.67769 18.9981 7.71197 18.6405C6.76598 18.4683 5.88834 18.4181 5.18653 18.4181C4.97816 18.4181 4.78526 18.4226 4.6108 18.4296V4.40662H4.61071C6.35207 4.32808 10.5881 4.51426 12.594 7.91452V20.9163ZM14.406 7.91461C16.4046 4.52889 20.6473 4.33426 22.3892 4.40889V18.4296C21.6271 18.3988 20.5147 18.4172 19.2879 18.6405C17.3222 18.9981 15.6725 19.7718 14.406 20.9163V7.91461ZM16.2979 21.7339C19.1738 19.7597 23.1119 20.3007 23.161 20.3079C23.422 20.3471 23.6867 20.2704 23.8866 20.0984C24.0864 19.9262 24.2013 19.6757 24.2013 19.4118V7.34598H25.1878V22.3007C23.3878 21.8281 19.8411 21.1272 16.2979 21.7339Z" fill="black"/>
</svg>
