<svg width="54" height="54" viewBox="0 0 54 54" fill="none" xmlns="http://www.w3.org/2000/svg">
<path d="M50.0272 24.1873C49.0957 24.1873 48.3397 23.4313 48.3397 22.4998C48.3397 16.0378 45.8245 9.96512 41.2568 5.39536C40.5977 4.73618 40.5977 3.66748 41.2568 3.0083C41.916 2.34912 42.9847 2.34912 43.6443 3.0083C48.8485 8.21458 51.7147 15.138 51.7147 22.4998C51.7147 23.4313 50.9587 24.1873 50.0272 24.1873V24.1873Z" fill="white"/>
<path d="M3.90234 24.1875C2.97084 24.1875 2.21484 23.4315 2.21484 22.5C2.21484 15.1382 5.08145 8.21472 10.2877 3.0105C10.9469 2.35132 12.016 2.35132 12.6752 3.0105C13.3344 3.66968 13.3344 4.73878 12.6752 5.39796C8.10544 9.96526 5.58984 16.0379 5.58984 22.5C5.58984 23.4315 4.83385 24.1875 3.90234 24.1875Z" fill="white"/>
<path d="M26.9651 54C22.3121 54 18.5276 50.2155 18.5276 45.5625C18.5276 44.631 19.2836 43.875 20.2151 43.875C21.1466 43.875 21.9026 44.631 21.9026 45.5625C21.9026 48.3549 24.1726 50.625 26.9651 50.625C29.7571 50.625 32.0276 48.3549 32.0276 45.5625C32.0276 44.631 32.7836 43.875 33.7151 43.875C34.6466 43.875 35.4026 44.631 35.4026 45.5625C35.4026 50.2155 31.6181 54 26.9651 54V54Z" fill="white"/>
<path d="M45.5274 47.25H8.40237C6.23079 47.25 4.4646 45.4838 4.4646 43.3126C4.4646 42.1603 4.9664 41.0694 5.84187 40.32C9.26384 37.4286 11.2146 33.226 11.2146 28.7732V22.4999C11.2146 13.8152 18.2798 6.75 26.9649 6.75C35.6496 6.75 42.7147 13.8152 42.7147 22.4999V28.7732C42.7147 33.226 44.6655 37.4286 48.0652 40.3043C48.9629 41.0694 49.4647 42.1603 49.4647 43.3126C49.4647 45.4838 47.6985 47.25 45.5274 47.25V47.25ZM26.9649 10.125C20.1403 10.125 14.5896 15.6757 14.5896 22.4999V28.7732C14.5896 34.2201 12.2025 39.3637 8.0423 42.8805C7.96361 42.948 7.8396 43.0877 7.8396 43.3126C7.8396 43.6183 8.09627 43.875 8.40237 43.875H45.5274C45.8331 43.875 46.0897 43.6183 46.0897 43.3126C46.0897 43.0877 45.9661 42.948 45.8916 42.885C41.7268 39.3637 39.3397 34.2201 39.3397 28.7732V22.4999C39.3397 15.6757 33.789 10.125 26.9649 10.125V10.125Z" fill="white"/>
<path d="M26.9651 10.125C26.0336 10.125 25.2776 9.369 25.2776 8.4375V1.6875C25.2776 0.755997 26.0336 0 26.9651 0C27.8966 0 28.6526 0.755997 28.6526 1.6875V8.4375C28.6526 9.369 27.8966 10.125 26.9651 10.125Z" fill="white"/>
</svg>
