<svg width="32" height="32" viewBox="0 0 32 32" fill="none" xmlns="http://www.w3.org/2000/svg">
<path d="M29.646 14.3333C29.094 14.3333 28.646 13.8853 28.646 13.3333C28.646 9.50391 27.1555 5.90527 24.4487 3.19727C24.0581 2.80664 24.0581 2.17334 24.4487 1.78271C24.8394 1.39209 25.4727 1.39209 25.8635 1.78271C28.9475 4.86792 30.646 8.9707 30.646 13.3333C30.646 13.8853 30.198 14.3333 29.646 14.3333V14.3333Z" fill="#ED1D24"/>
<path d="M2.3125 14.3333C1.7605 14.3333 1.3125 13.8853 1.3125 13.3333C1.3125 8.9707 3.01123 4.86792 6.09644 1.78394C6.48706 1.39331 7.12061 1.39331 7.51123 1.78394C7.90186 2.17456 7.90186 2.80811 7.51123 3.19873C4.80322 5.90527 3.3125 9.50391 3.3125 13.3333C3.3125 13.8853 2.8645 14.3333 2.3125 14.3333Z" fill="#ED1D24"/>
<path d="M15.9795 32C13.2222 32 10.9795 29.7573 10.9795 27C10.9795 26.448 11.4275 26 11.9795 26C12.5315 26 12.9795 26.448 12.9795 27C12.9795 28.6548 14.3247 30 15.9795 30C17.634 30 18.9795 28.6548 18.9795 27C18.9795 26.448 19.4275 26 19.9795 26C20.5315 26 20.9795 26.448 20.9795 27C20.9795 29.7573 18.7368 32 15.9795 32V32Z" fill="#ED1D24"/>
<path d="M26.979 28H4.979C3.69214 28 2.64551 26.9534 2.64551 25.6667C2.64551 24.9839 2.94287 24.3374 3.46167 23.8933C5.4895 22.1799 6.64551 19.6895 6.64551 17.0508V13.3333C6.64551 8.18677 10.8323 4 15.979 4C21.1255 4 25.3123 8.18677 25.3123 13.3333V17.0508C25.3123 19.6895 26.4683 22.1799 28.4829 23.884C29.0149 24.3374 29.3123 24.9839 29.3123 25.6667C29.3123 26.9534 28.2656 28 26.979 28V28ZM15.979 6C11.9348 6 8.64551 9.28931 8.64551 13.3333V17.0508C8.64551 20.2786 7.23096 23.3267 4.76562 25.4106C4.71899 25.4507 4.64551 25.5334 4.64551 25.6667C4.64551 25.8479 4.79761 26 4.979 26H26.979C27.1602 26 27.3123 25.8479 27.3123 25.6667C27.3123 25.5334 27.239 25.4507 27.1948 25.4133C24.7268 23.3267 23.3123 20.2786 23.3123 17.0508V13.3333C23.3123 9.28931 20.0229 6 15.979 6V6Z" fill="#ED1D24"/>
<path d="M15.9795 6C15.4275 6 14.9795 5.552 14.9795 5V1C14.9795 0.447998 15.4275 0 15.9795 0C16.5315 0 16.9795 0.447998 16.9795 1V5C16.9795 5.552 16.5315 6 15.9795 6Z" fill="#ED1D24"/>
</svg>
