<svg width="30" height="32" viewBox="0 0 32 32" fill="none" xmlns="http://www.w3.org/2000/svg">
<path d="M28.8 12.5468V3.2C28.7991 2.31675 28.0833 1.60094 27.2 1.6H26.6667C26.6657 0.71675 25.9499 0.0009375 25.0667 0H16C15.3849 0.002 14.8011 0.271062 14.4 0.73725C13.9989 0.271062 13.4151 0.002 12.8 0H3.73331C2.85006 0.0009375 2.13425 0.71675 2.13331 1.6H1.6C0.71675 1.60094 0.0009375 2.31675 0 3.2V22.9333C0.0009375 23.8166 0.71675 24.5324 1.6 24.5333H19.2V27.2C19.2031 29.8497 21.3503 31.9969 24 32H27.2C29.8497 31.9969 31.9969 29.8497 32 27.2V17.0667C31.9964 15.0349 30.7151 13.2251 28.8 12.5468ZM26.6667 2.66669H27.2C27.4944 2.66706 27.7329 2.90563 27.7333 3.2V12.2981C27.5563 12.2778 27.3782 12.2672 27.2 12.2667H26.6667V2.66669ZM5.33331 1.06669H8.53331V8.07969L7.34969 6.60025C7.24856 6.47369 7.09531 6.4 6.93331 6.4C6.77131 6.4 6.61806 6.47369 6.51694 6.60025L5.33331 8.07969V1.06669ZM3.2 1.6C3.20038 1.30563 3.43894 1.06706 3.73331 1.06669H4.26662V9.6C4.2665 9.82656 4.40956 10.0284 4.62337 10.1034C4.83712 10.1784 5.07494 10.1101 5.21637 9.93306L6.93331 7.787L8.65025 9.93306C8.75138 10.0597 8.90462 10.1334 9.06662 10.1333C9.20812 10.1334 9.34381 10.0773 9.44388 9.97725C9.54394 9.87719 9.60006 9.7415 9.59994 9.6V1.06669H12.7999C13.3888 1.06725 13.866 1.5445 13.8666 2.13337V19.5296C13.5326 19.3167 13.1452 19.2024 12.7492 19.2H3.2V1.6ZM3.2 20.2667H12.7493C13.3362 20.2872 13.8129 20.7475 13.8541 21.3334H3.2V20.2667ZM19.2 23.4667H1.6C1.30563 23.4663 1.06706 23.2277 1.06669 22.9334V3.2C1.06706 2.90563 1.30563 2.66706 1.6 2.66669H2.13331V21.8667C2.13331 22.1613 2.37206 22.4 2.66663 22.4H19.2V23.4667ZM19.2 21.3333H14.9459C14.9878 20.7468 15.4657 20.2866 16.0534 20.2666H19.2V21.3333ZM19.2 19.2H16.0534C15.6564 19.2024 15.2681 19.3169 14.9333 19.5304V2.13331C14.9339 1.54444 15.4111 1.06725 16 1.06662H25.0667C25.3611 1.067 25.5996 1.30556 25.6 1.59994V12.2666H24C21.3503 12.2697 19.2031 14.4169 19.2 17.0666V19.2ZM25.0667 13.3333V20.2666H20.2667V17.0666C20.269 15.0058 21.9391 13.3356 24 13.3333H25.0667V13.3333ZM30.9333 27.2C30.931 29.2609 29.2609 30.931 27.2 30.9333H24C21.9391 30.931 20.269 29.2609 20.2667 27.2V21.3333H30.9334V27.2H30.9333ZM30.9333 20.2667H26.1333V13.3333H27.2C29.2609 13.3356 30.931 15.0058 30.9333 17.0666V20.2667Z" fill="black"/>
</svg>
