<svg width="12" height="14" viewBox="0 0 12 14" fill="none" xmlns="http://www.w3.org/2000/svg">
<path d="M8.11387 7.64907L5.6875 12.9063H6.5625L7.04813 11.8125H9.57687L10.0625 12.9063H10.9375L8.51113 7.64907C8.49362 7.61113 8.4656 7.57899 8.4304 7.55647C8.3952 7.53394 8.35429 7.52197 8.3125 7.52197C8.27071 7.52197 8.2298 7.53394 8.1946 7.55647C8.1594 7.57899 8.13138 7.61113 8.11387 7.64907ZM7.34125 11.1563L8.3125 8.96879L9.28375 11.1563H7.34125Z" fill="#ED1C24"/>
<path d="M7.12207 11.1562H7.34082L8.20269 9.21506L8.09332 8.96875L7.12207 11.1562Z" fill="#D80027"/>
<path d="M6.34375 12.9062H6.5625L7.04813 11.8125H6.82938L6.34375 12.9062Z" fill="#D80027"/>
<path d="M8.51113 7.64913C8.49836 7.62154 8.47999 7.59692 8.45718 7.57682C8.43437 7.55673 8.40762 7.54161 8.37864 7.53243C8.34966 7.52325 8.31909 7.52021 8.28887 7.52351C8.25865 7.5268 8.22944 7.53636 8.20312 7.55157C8.24234 7.57397 8.27355 7.60809 8.29238 7.64913L10.7188 12.9064H10.9375L8.51113 7.64913Z" fill="#D80027"/>
<path d="M2.84375 0.21875L0.21875 5.25H2.84375L1.3125 12.9062L8.96875 5.25H6.34375L8.96875 0.21875H2.84375Z" fill="#FFCD00"/>
<path d="M6.34375 5.25L8.96875 0.21875H8.3125L5.6875 5.25H6.34375Z" fill="#EBBF00"/>
<path d="M1.47656 12.0859L1.3125 12.9062L8.96875 5.25H8.3125L1.47656 12.0859Z" fill="#EBBF00"/>
<path d="M10.9375 13.125H10.0625C10.0202 13.1251 9.97875 13.1128 9.94326 13.0897C9.90777 13.0667 9.87974 13.0338 9.86255 12.9951L9.43468 12.0313H7.19031L6.76244 12.9951C6.74525 13.0338 6.71722 13.0667 6.68173 13.0897C6.64624 13.1128 6.60482 13.1251 6.5625 13.125H5.6875C5.65079 13.125 5.61468 13.1158 5.58248 13.0982C5.55028 13.0806 5.52303 13.0551 5.50324 13.0242C5.48346 12.9933 5.47177 12.9579 5.46926 12.9213C5.46675 12.8846 5.4735 12.848 5.48888 12.8146L7.91525 7.55742C7.95026 7.48153 8.00629 7.41726 8.07669 7.37221C8.14709 7.32716 8.22892 7.30322 8.3125 7.30322C8.39608 7.30322 8.47791 7.32716 8.5483 7.37221C8.6187 7.41726 8.67473 7.48153 8.70975 7.55742L11.1361 12.8146C11.1515 12.848 11.1582 12.8846 11.1557 12.9213C11.1532 12.9579 11.1415 12.9933 11.1217 13.0242C11.102 13.0551 11.0747 13.0806 11.0425 13.0982C11.0103 13.1158 10.9742 13.125 10.9375 13.125V13.125ZM8.3125 7.74074L6.02919 12.6875H6.42031L6.84819 11.7237C6.86537 11.6851 6.89341 11.6522 6.92889 11.6291C6.96438 11.6061 7.0058 11.5938 7.04812 11.5938H9.57687C9.61919 11.5938 9.66061 11.6061 9.6961 11.6291C9.73159 11.6522 9.75962 11.6851 9.7768 11.7237L10.2047 12.6875H10.5956L8.3125 7.74074ZM9.28374 11.375H7.34125C7.3048 11.3751 7.26893 11.366 7.2369 11.3486C7.20486 11.3312 7.17768 11.3061 7.15782 11.2755C7.13795 11.245 7.12604 11.2099 7.12316 11.1736C7.12027 11.1373 7.12651 11.1008 7.14131 11.0675L8.11256 8.87999C8.12973 8.8413 8.15776 8.80842 8.19325 8.78534C8.22874 8.76227 8.27016 8.74999 8.3125 8.74999C8.35483 8.74999 8.39625 8.76227 8.43174 8.78534C8.46723 8.80842 8.49526 8.8413 8.51243 8.87999L9.48368 11.0675C9.49848 11.1008 9.50472 11.1373 9.50184 11.1736C9.49895 11.2099 9.48704 11.245 9.46717 11.2755C9.44731 11.3061 9.42013 11.3312 9.38809 11.3486C9.35606 11.366 9.32019 11.3751 9.28374 11.375V11.375ZM7.67812 10.9375H8.94687L8.3125 9.5078L7.67812 10.9375Z" fill="#231F20"/>
<path d="M1.31253 13.125C1.28008 13.125 1.24805 13.1178 1.21874 13.1039C1.18943 13.09 1.16357 13.0697 1.14305 13.0446C1.12253 13.0195 1.10786 12.9901 1.10009 12.9586C1.09233 12.9271 1.09166 12.8943 1.09815 12.8625L2.5769 5.46875H0.218776C0.181179 5.46875 0.144215 5.45907 0.111452 5.44063C0.078688 5.42219 0.0512307 5.39561 0.0317289 5.36347C0.0122271 5.33132 0.00133913 5.29469 0.000115839 5.25712C-0.00110745 5.21954 0.00737516 5.18228 0.0247451 5.14894L2.64975 0.117688C2.66823 0.0822016 2.6961 0.0524655 2.73031 0.0317151C2.76452 0.0109648 2.80376 -4.80276e-06 2.84378 1.57751e-09H8.96878C9.00637 -4.51308e-06 9.04334 0.00968139 9.0761 0.0281231C9.10887 0.0465648 9.13632 0.0731397 9.15582 0.105284C9.17533 0.137428 9.18621 0.174055 9.18744 0.211633C9.18866 0.24921 9.18018 0.286468 9.16281 0.319812L6.70449 5.03125H8.96878C9.01203 5.03126 9.05432 5.04409 9.09028 5.06813C9.12625 5.09217 9.15428 5.12633 9.17083 5.16629C9.18738 5.20626 9.19172 5.25024 9.18328 5.29266C9.17484 5.33509 9.15402 5.37406 9.12343 5.40466L1.46718 13.0609C1.42617 13.1019 1.37054 13.125 1.31253 13.125V13.125ZM0.579495 5.03125H2.84378C2.87622 5.03124 2.90825 5.03845 2.93757 5.05236C2.96688 5.06626 2.99273 5.08651 3.01325 5.11163C3.03377 5.13676 3.04844 5.16614 3.05621 5.19763C3.06398 5.22913 3.06464 5.26196 3.05815 5.29375L1.66865 12.2408L8.44071 5.46875H6.34378C6.30618 5.46875 6.26922 5.45907 6.23645 5.44063C6.20369 5.42219 6.17623 5.39561 6.15673 5.36347C6.13723 5.33132 6.12634 5.29469 6.12512 5.25712C6.12389 5.21954 6.13237 5.18228 6.14974 5.14894L8.60806 0.4375H2.97634L0.579495 5.03125Z" fill="#231F20"/>
</svg>
