<svg width="54" height="54" viewBox="0 0 54 54" fill="none" xmlns="http://www.w3.org/2000/svg">
<g clip-path="url(#clip0)">
<path d="M24.0088 44.9079H26.0502C26.5639 44.9079 27.0171 44.5713 27.1654 44.0798L30.0786 34.4224L29.3823 34.4298L24.0088 44.9079Z" fill="white"/>
<path d="M43.7568 3.22255C43.7646 3.20804 43.7646 3.20804 43.7568 3.22255V3.22255Z" fill="white"/>
<path d="M43.7505 3.23264C43.7493 3.2347 43.7485 3.23635 43.7472 3.2384C44.3265 2.24181 44.0443 0.9424 43.0687 0.328126C42.0445 -0.317046 40.6985 0.0207839 40.0954 1.05858L35.2376 9.42151C35.4614 11.8082 34.1306 13.9674 32.0542 14.9026L31.8149 15.3146H26.9023C26.3721 15.3146 25.8447 15.3924 25.3372 15.5453L19.0659 17.4351L15.3815 12.6053C14.6692 11.6718 13.3348 11.4922 12.4012 12.2045C11.4676 12.9168 11.288 14.2512 12.0003 15.1848L16.5907 21.2027C17.1325 21.913 18.064 22.2112 18.9217 21.9406C19.7642 21.6744 22.5802 20.8212 23.845 20.422V31.0204L13.9663 50.2832C13.2672 51.6461 13.9177 53.3118 15.356 53.8428C16.5462 54.282 17.9099 53.7765 18.5073 52.6122L28.5346 33.0593L30.1892 33.0412C30.8582 33.4667 33.2276 34.9734 34.2728 35.6379L30.4405 43.1863C29.8027 44.4433 30.3041 45.9788 31.5607 46.617C32.8148 47.2535 34.3519 46.7558 34.9913 45.4968L39.8717 35.883C40.4662 34.7114 40.0744 33.2797 38.9657 32.5748C37.8637 31.874 35.3913 30.3768 34.6444 29.9018V18.9104C34.6444 18.9104 43.3773 3.87575 43.7505 3.23264V3.23264ZM29.2519 23.359C27.8606 23.359 26.733 22.2314 26.733 20.8402C26.733 19.4493 27.8606 18.3213 29.2519 18.3213C30.6432 18.3213 31.7708 19.4497 31.7708 20.8402C31.7708 22.2314 30.6432 23.359 29.2519 23.359Z" fill="white"/>
<path d="M43.7505 3.23355C43.7533 3.22871 43.7554 3.22476 43.757 3.22168C43.7554 3.22476 43.7533 3.22915 43.7505 3.23355Z" fill="white"/>
<path d="M29.8184 14.2139C29.8341 14.2139 29.8497 14.2135 29.8654 14.2135C32.2273 14.188 34.1212 12.2529 34.0956 9.89094C34.0705 7.54508 32.1605 5.66064 29.8205 5.66064C29.8048 5.66064 29.7892 5.66106 29.7735 5.66106C27.4116 5.6866 25.5177 7.62171 25.5432 9.98322C25.5688 12.3291 27.4783 14.2139 29.8184 14.2139Z" fill="white"/>
<path d="M22.4167 30.6942V22.2917L21.5564 22.5476L10.0628 43.1762C9.63065 43.9524 10.1918 44.9078 11.0804 44.9078H15.1727L22.4167 30.6942Z" fill="white"/>
</g>
<defs>
<clipPath id="clip0">
<rect width="54" height="54" fill="white"/>
</clipPath>
</defs>
</svg>
