<svg width="54" height="54" viewBox="0 0 54 54" fill="none" xmlns="http://www.w3.org/2000/svg">
<g clip-path="url(#clip0)">
<path d="M24.0088 44.9079H26.0502C26.5639 44.9079 27.0171 44.5713 27.1654 44.0798L30.0786 34.4224L29.3823 34.4298L24.0088 44.9079Z" fill="black"/>
<path d="M43.7568 3.22242C43.7646 3.20792 43.7646 3.20792 43.7568 3.22242V3.22242Z" fill="black"/>
<path d="M43.7505 3.23276C43.7493 3.23482 43.7485 3.23647 43.7472 3.23853C44.3265 2.24193 44.0443 0.942522 43.0687 0.328248C42.0445 -0.316924 40.6985 0.020906 40.0954 1.0587L35.2376 9.42163C35.4614 11.8083 34.1306 13.9675 32.0542 14.9027L31.8149 15.3147H26.9023C26.3721 15.3147 25.8447 15.3926 25.3372 15.5454L19.0659 17.4352L15.3815 12.6055C14.6692 11.6719 13.3348 11.4923 12.4012 12.2046C11.4676 12.9169 11.288 14.2514 12.0003 15.1849L16.5907 21.2028C17.1325 21.9131 18.064 22.2114 18.9217 21.9407C19.7642 21.6745 22.5802 20.8213 23.845 20.4221V31.0205L13.9663 50.2834C13.2672 51.6462 13.9177 53.3119 15.356 53.8429C16.5462 54.2821 17.9099 53.7766 18.5073 52.6123L28.5346 33.0594L30.1892 33.0413C30.8582 33.4669 33.2276 34.9735 34.2728 35.638L30.4405 43.1865C29.8027 44.4434 30.3041 45.9789 31.5607 46.6171C32.8148 47.2536 34.3519 46.7559 34.9913 45.4969L39.8717 35.8832C40.4662 34.7115 40.0744 33.2798 38.9657 32.5749C37.8637 31.8741 35.3913 30.377 34.6444 29.9019V18.9105C34.6444 18.9105 43.3773 3.87587 43.7505 3.23276ZM29.2519 23.3592C27.8606 23.3592 26.733 22.2316 26.733 20.8403C26.733 19.4494 27.8606 18.3214 29.2519 18.3214C30.6432 18.3214 31.7708 19.4498 31.7708 20.8403C31.7708 22.2316 30.6432 23.3592 29.2519 23.3592Z" fill="black"/>
<path d="M43.7505 3.23367C43.7533 3.22883 43.7554 3.22488 43.757 3.2218C43.7554 3.22488 43.7533 3.22927 43.7505 3.23367Z" fill="black"/>
<path d="M29.8184 14.2139C29.8341 14.2139 29.8497 14.2135 29.8654 14.2135C32.2273 14.188 34.1212 12.2529 34.0956 9.89094C34.0705 7.54508 32.1605 5.66064 29.8205 5.66064C29.8048 5.66064 29.7892 5.66106 29.7735 5.66106C27.4116 5.6866 25.5177 7.62171 25.5432 9.98322C25.5688 12.3291 27.4783 14.2139 29.8184 14.2139Z" fill="black"/>
<path d="M22.4167 30.6942V22.2917L21.5564 22.5476L10.0628 43.1762C9.63065 43.9524 10.1918 44.9078 11.0804 44.9078H15.1727L22.4167 30.6942Z" fill="black"/>
</g>
<defs>
<clipPath id="clip0">
<rect width="54" height="54" fill="white"/>
</clipPath>
</defs>
</svg>
