<svg width="32" height="32" viewBox="0 0 32 32" fill="none" xmlns="http://www.w3.org/2000/svg">
<g clip-path="url(#clip0)">
<path d="M14.2275 26.6121H15.4373C15.7417 26.6121 16.0103 26.4126 16.0981 26.1213L17.8245 20.3984L17.4119 20.4028L14.2275 26.6121Z" fill="white"/>
<path d="M25.9302 1.90952C25.9348 1.90093 25.9348 1.90093 25.9302 1.90952V1.90952Z" fill="white"/>
<path d="M25.9263 1.91554C25.9255 1.91676 25.925 1.91773 25.9243 1.91896C26.2676 1.32838 26.1003 0.55836 25.5222 0.194346C24.9153 -0.187978 24.1177 0.0122169 23.7603 0.627207L20.8816 5.58302C21.0142 6.99733 20.2256 8.27687 18.9951 8.83107L18.8533 9.07521H15.9421C15.6279 9.07521 15.3154 9.12135 15.0146 9.21192L11.2983 10.3318L9.11499 7.46974C8.69287 6.91651 7.9021 6.81007 7.34887 7.23219C6.79565 7.65431 6.68921 8.44508 7.11132 8.9983L9.83154 12.5645C10.1526 12.9854 10.7046 13.1621 11.2129 13.0017C11.7122 12.844 13.3809 12.3384 14.1304 12.1018V18.3823L8.27636 29.7974C7.86206 30.605 8.24756 31.5921 9.09985 31.9068C9.80517 32.167 10.6133 31.8674 10.9673 31.1775L16.9094 19.5906L17.8899 19.5798C18.2864 19.832 19.6904 20.7249 20.3098 21.1187L18.0388 25.5918C17.6609 26.3367 17.958 27.2466 18.7026 27.6248C19.4458 28.002 20.3567 27.707 20.7356 26.961L23.6277 21.2639C23.98 20.5696 23.7478 19.7212 23.0908 19.3035C22.4377 18.8882 20.9727 18.001 20.53 17.7195V11.2061C20.53 11.2061 25.7051 2.29664 25.9263 1.91554V1.91554ZM17.3345 13.8423C16.51 13.8423 15.8418 13.1741 15.8418 12.3496C15.8418 11.5254 16.51 10.8569 17.3345 10.8569C18.1589 10.8569 18.8271 11.5256 18.8271 12.3496C18.8271 13.1741 18.1589 13.8423 17.3345 13.8423Z" fill="white"/>
<path d="M25.9263 1.91621C25.928 1.91335 25.9292 1.911 25.9301 1.90918C25.9292 1.911 25.928 1.91361 25.9263 1.91621Z" fill="white"/>
<path d="M17.6703 8.42311C17.6796 8.42311 17.6889 8.42286 17.6981 8.42286C19.0978 8.40773 20.2201 7.26099 20.205 5.86133C20.1901 4.47119 19.0582 3.35449 17.6715 3.35449C17.6623 3.35449 17.653 3.35474 17.6437 3.35474C16.244 3.36987 15.1217 4.5166 15.1369 5.91602C15.152 7.30616 16.2836 8.42311 17.6703 8.42311Z" fill="white"/>
<path d="M13.2839 18.1892V13.21L12.7742 13.3616L5.96316 25.5859C5.70705 26.0459 6.03957 26.6121 6.56618 26.6121H8.99123L13.2839 18.1892Z" fill="white"/>
</g>
<defs>
<clipPath id="clip0">
<rect width="32" height="32" fill="white"/>
</clipPath>
</defs>
</svg>
