<svg width="32" height="32" viewBox="0 0 32 32" fill="none" xmlns="http://www.w3.org/2000/svg">
<path d="M29.2273 30.6634L27.2801 8.97816C27.227 8.38596 26.7306 7.93235 26.1361 7.93235H22.1206V6.12128C22.1206 2.74601 19.3747 0 15.9996 0C12.6246 0 9.87908 2.74601 9.87908 6.12128V7.93235H5.86077C5.26626 7.93235 4.76993 8.38596 4.71679 8.97816L2.76192 30.7487C2.73313 31.07 2.84063 31.3883 3.05825 31.6263C3.27586 31.8643 3.58353 31.9998 3.90589 31.9998H28.0912C28.0921 31.9998 28.0933 31.9998 28.0942 31.9998C28.7287 31.9998 29.2428 31.4856 29.2428 30.8513C29.2426 30.7874 29.2374 30.7245 29.2273 30.6634ZM12.1762 6.12128C12.1762 4.01265 13.8914 2.29715 15.9998 2.29715C18.1082 2.29715 19.8236 4.01265 19.8236 6.12128V7.93235H12.1762V6.12128ZM5.16228 29.7029L6.91087 10.2295H9.87908V12.2834C9.87908 12.9178 10.3932 13.432 11.0277 13.432C11.6621 13.432 12.1762 12.9178 12.1762 12.2834V10.2295H19.8236V12.2834C19.8236 12.9178 20.3377 13.432 20.9722 13.432C21.6066 13.432 22.1207 12.9178 22.1207 12.2834V10.2295H25.0862L26.8348 29.7029H5.16228V29.7029Z" fill="white"/>
</svg>
