<svg width="32" height="32" viewBox="0 0 32 32" fill="none" xmlns="http://www.w3.org/2000/svg">
<path d="M29.2268 30.6634L27.2796 8.97816C27.2265 8.38596 26.7301 7.93235 26.1356 7.93235H22.1201V6.12128C22.1201 2.74601 19.3742 0 15.9991 0C12.6241 0 9.8786 2.74601 9.8786 6.12128V7.93235H5.86028C5.26578 7.93235 4.76944 8.38596 4.7163 8.97816L2.76143 30.7487C2.73264 31.07 2.84014 31.3883 3.05776 31.6263C3.27538 31.8643 3.58304 31.9998 3.90541 31.9998H28.0907C28.0916 31.9998 28.0928 31.9998 28.0937 31.9998C28.7282 31.9998 29.2423 31.4856 29.2423 30.8513C29.2422 30.7874 29.2369 30.7245 29.2268 30.6634ZM12.1757 6.12128C12.1757 4.01265 13.8909 2.29715 15.9993 2.29715C18.1077 2.29715 19.8231 4.01265 19.8231 6.12128V7.93235H12.1757V6.12128ZM5.16179 29.7029L6.91038 10.2295H9.8786V12.2834C9.8786 12.9178 10.3927 13.432 11.0272 13.432C11.6616 13.432 12.1757 12.9178 12.1757 12.2834V10.2295H19.8231V12.2834C19.8231 12.9178 20.3372 13.432 20.9717 13.432C21.6061 13.432 22.1202 12.9178 22.1202 12.2834V10.2295H25.0857L26.8343 29.7029H5.16179V29.7029Z" fill="black"/>
</svg>
